<mxfile host="app.diagrams.net" modified="2023-06-01T20:39:37.383Z" agent="Mozilla/5.0 (Windows NT 10.0; Win64; x64) AppleWebKit/537.36 (KHTML, like Gecko) Chrome/113.0.0.0 Safari/537.36" etag="6Z0ey_DnVT37xFIYd1pj" version="21.3.6" type="github">
  <diagram name="Страница 1" id="SF3Ez12UbQ2qI-3ig8pY">
    <mxGraphModel dx="1674" dy="788" grid="1" gridSize="10" guides="1" tooltips="1" connect="1" arrows="1" fold="1" page="1" pageScale="1" pageWidth="827" pageHeight="1169" math="0" shadow="0">
      <root>
        <mxCell id="0" />
        <mxCell id="1" parent="0" />
        <mxCell id="6vtT33JAd5Ye3ETnXhBx-2" value="Модератор" style="rounded=0;whiteSpace=wrap;html=1;" parent="1" vertex="1">
          <mxGeometry x="350" y="120" width="120" height="60" as="geometry" />
        </mxCell>
        <mxCell id="6vtT33JAd5Ye3ETnXhBx-5" value="P1" style="swimlane;fontStyle=0;childLayout=stackLayout;horizontal=1;startSize=30;horizontalStack=0;resizeParent=1;resizeParentMax=0;resizeLast=0;collapsible=1;marginBottom=0;whiteSpace=wrap;html=1;" parent="1" vertex="1">
          <mxGeometry x="340" y="360" width="140" height="100" as="geometry" />
        </mxCell>
        <mxCell id="6vtT33JAd5Ye3ETnXhBx-6" value="Информационный портал нефтегазовой компании" style="text;strokeColor=none;fillColor=none;align=left;verticalAlign=middle;spacingLeft=4;spacingRight=4;overflow=hidden;points=[[0,0.5],[1,0.5]];portConstraint=eastwest;rotatable=0;whiteSpace=wrap;html=1;" parent="6vtT33JAd5Ye3ETnXhBx-5" vertex="1">
          <mxGeometry y="30" width="140" height="70" as="geometry" />
        </mxCell>
        <mxCell id="6vtT33JAd5Ye3ETnXhBx-9" value="" style="endArrow=classic;html=1;rounded=0;exitX=0.908;exitY=1;exitDx=0;exitDy=0;exitPerimeter=0;entryX=0.871;entryY=0.01;entryDx=0;entryDy=0;entryPerimeter=0;" parent="1" source="6vtT33JAd5Ye3ETnXhBx-2" target="6vtT33JAd5Ye3ETnXhBx-5" edge="1">
          <mxGeometry relative="1" as="geometry">
            <mxPoint x="360" y="420" as="sourcePoint" />
            <mxPoint x="460" y="350" as="targetPoint" />
          </mxGeometry>
        </mxCell>
        <mxCell id="6vtT33JAd5Ye3ETnXhBx-10" value="Размещение ТЗ" style="edgeLabel;resizable=0;html=1;align=center;verticalAlign=middle;" parent="6vtT33JAd5Ye3ETnXhBx-9" connectable="0" vertex="1">
          <mxGeometry relative="1" as="geometry" />
        </mxCell>
        <mxCell id="6vtT33JAd5Ye3ETnXhBx-11" value="" style="endArrow=classic;html=1;rounded=0;exitX=0.171;exitY=-0.02;exitDx=0;exitDy=0;exitPerimeter=0;entryX=0.158;entryY=1.017;entryDx=0;entryDy=0;entryPerimeter=0;" parent="1" source="6vtT33JAd5Ye3ETnXhBx-5" target="6vtT33JAd5Ye3ETnXhBx-2" edge="1">
          <mxGeometry relative="1" as="geometry">
            <mxPoint x="360" y="420" as="sourcePoint" />
            <mxPoint x="460" y="420" as="targetPoint" />
          </mxGeometry>
        </mxCell>
        <mxCell id="6vtT33JAd5Ye3ETnXhBx-12" value="Статистика" style="edgeLabel;resizable=0;html=1;align=center;verticalAlign=middle;" parent="6vtT33JAd5Ye3ETnXhBx-11" connectable="0" vertex="1">
          <mxGeometry relative="1" as="geometry" />
        </mxCell>
        <mxCell id="6vtT33JAd5Ye3ETnXhBx-17" value="Редактор" style="rounded=0;whiteSpace=wrap;html=1;" parent="1" vertex="1">
          <mxGeometry x="30" y="395" width="120" height="60" as="geometry" />
        </mxCell>
        <mxCell id="6vtT33JAd5Ye3ETnXhBx-18" value="" style="endArrow=classic;html=1;rounded=0;exitX=1;exitY=0;exitDx=0;exitDy=0;entryX=-0.036;entryY=0.086;entryDx=0;entryDy=0;entryPerimeter=0;" parent="1" source="6vtT33JAd5Ye3ETnXhBx-17" edge="1">
          <mxGeometry x="0.0132" y="76" relative="1" as="geometry">
            <mxPoint x="181" y="395" as="sourcePoint" />
            <mxPoint x="335.96000000000004" y="396.02" as="targetPoint" />
            <mxPoint as="offset" />
          </mxGeometry>
        </mxCell>
        <mxCell id="6vtT33JAd5Ye3ETnXhBx-19" value="Готовый контент" style="edgeLabel;resizable=0;html=1;align=center;verticalAlign=middle;" parent="6vtT33JAd5Ye3ETnXhBx-18" connectable="0" vertex="1">
          <mxGeometry relative="1" as="geometry" />
        </mxCell>
        <mxCell id="6vtT33JAd5Ye3ETnXhBx-20" value="" style="endArrow=classic;html=1;rounded=0;exitX=0;exitY=0.5;exitDx=0;exitDy=0;entryX=1;entryY=0.75;entryDx=0;entryDy=0;" parent="1" source="6vtT33JAd5Ye3ETnXhBx-6" target="6vtT33JAd5Ye3ETnXhBx-17" edge="1">
          <mxGeometry relative="1" as="geometry">
            <mxPoint x="360" y="420" as="sourcePoint" />
            <mxPoint x="460" y="420" as="targetPoint" />
          </mxGeometry>
        </mxCell>
        <mxCell id="6vtT33JAd5Ye3ETnXhBx-21" value="Получение&lt;br&gt;неотредактированного&lt;br&gt;контента" style="edgeLabel;resizable=0;html=1;align=center;verticalAlign=middle;" parent="6vtT33JAd5Ye3ETnXhBx-20" connectable="0" vertex="1">
          <mxGeometry relative="1" as="geometry" />
        </mxCell>
        <mxCell id="6vtT33JAd5Ye3ETnXhBx-26" value="Пользователь" style="rounded=0;whiteSpace=wrap;html=1;" parent="1" vertex="1">
          <mxGeometry x="670" y="380" width="120" height="60" as="geometry" />
        </mxCell>
        <mxCell id="6vtT33JAd5Ye3ETnXhBx-27" value="" style="endArrow=classic;html=1;rounded=0;entryX=-0.025;entryY=0.867;entryDx=0;entryDy=0;entryPerimeter=0;exitX=1.029;exitY=0.643;exitDx=0;exitDy=0;exitPerimeter=0;" parent="1" source="6vtT33JAd5Ye3ETnXhBx-6" target="6vtT33JAd5Ye3ETnXhBx-26" edge="1">
          <mxGeometry relative="1" as="geometry">
            <mxPoint x="360" y="420" as="sourcePoint" />
            <mxPoint x="460" y="420" as="targetPoint" />
          </mxGeometry>
        </mxCell>
        <mxCell id="6vtT33JAd5Ye3ETnXhBx-28" value="Получение информации" style="edgeLabel;resizable=0;html=1;align=center;verticalAlign=middle;" parent="6vtT33JAd5Ye3ETnXhBx-27" connectable="0" vertex="1">
          <mxGeometry relative="1" as="geometry" />
        </mxCell>
        <mxCell id="6vtT33JAd5Ye3ETnXhBx-29" value="" style="endArrow=classic;html=1;rounded=0;exitX=-0.025;exitY=0.383;exitDx=0;exitDy=0;exitPerimeter=0;entryX=1.014;entryY=0.2;entryDx=0;entryDy=0;entryPerimeter=0;" parent="1" source="6vtT33JAd5Ye3ETnXhBx-26" target="6vtT33JAd5Ye3ETnXhBx-6" edge="1">
          <mxGeometry relative="1" as="geometry">
            <mxPoint x="460" y="420" as="sourcePoint" />
            <mxPoint x="560" y="420" as="targetPoint" />
          </mxGeometry>
        </mxCell>
        <mxCell id="6vtT33JAd5Ye3ETnXhBx-30" value="Поиск информации" style="edgeLabel;resizable=0;html=1;align=center;verticalAlign=middle;" parent="6vtT33JAd5Ye3ETnXhBx-29" connectable="0" vertex="1">
          <mxGeometry relative="1" as="geometry" />
        </mxCell>
        <mxCell id="6vtT33JAd5Ye3ETnXhBx-31" value="Контент-мейкер" style="rounded=0;whiteSpace=wrap;html=1;" parent="1" vertex="1">
          <mxGeometry x="540" y="600" width="120" height="60" as="geometry" />
        </mxCell>
        <mxCell id="6vtT33JAd5Ye3ETnXhBx-32" value="" style="endArrow=classic;html=1;rounded=0;exitX=0.117;exitY=-0.067;exitDx=0;exitDy=0;exitPerimeter=0;entryX=0.571;entryY=1.043;entryDx=0;entryDy=0;entryPerimeter=0;" parent="1" target="6vtT33JAd5Ye3ETnXhBx-6" edge="1">
          <mxGeometry relative="1" as="geometry">
            <mxPoint x="558.04" y="600" as="sourcePoint" />
            <mxPoint x="414" y="474.03" as="targetPoint" />
          </mxGeometry>
        </mxCell>
        <mxCell id="6vtT33JAd5Ye3ETnXhBx-33" value="Реализация ТЗ" style="edgeLabel;resizable=0;html=1;align=center;verticalAlign=middle;" parent="6vtT33JAd5Ye3ETnXhBx-32" connectable="0" vertex="1">
          <mxGeometry relative="1" as="geometry">
            <mxPoint x="-9" y="-22" as="offset" />
          </mxGeometry>
        </mxCell>
        <mxCell id="6vtT33JAd5Ye3ETnXhBx-34" value="" style="endArrow=classic;html=1;rounded=0;entryX=0.75;entryY=0;entryDx=0;entryDy=0;exitX=0.743;exitY=1.043;exitDx=0;exitDy=0;exitPerimeter=0;" parent="1" source="6vtT33JAd5Ye3ETnXhBx-6" target="6vtT33JAd5Ye3ETnXhBx-31" edge="1">
          <mxGeometry relative="1" as="geometry">
            <mxPoint x="446" y="466" as="sourcePoint" />
            <mxPoint x="560" y="420" as="targetPoint" />
          </mxGeometry>
        </mxCell>
        <mxCell id="6vtT33JAd5Ye3ETnXhBx-35" value="Получение тз" style="edgeLabel;resizable=0;html=1;align=center;verticalAlign=middle;" parent="6vtT33JAd5Ye3ETnXhBx-34" connectable="0" vertex="1">
          <mxGeometry relative="1" as="geometry" />
        </mxCell>
        <mxCell id="6vtT33JAd5Ye3ETnXhBx-37" value="" style="endArrow=classic;html=1;rounded=0;exitX=0.5;exitY=0;exitDx=0;exitDy=0;entryX=0.5;entryY=1;entryDx=0;entryDy=0;" parent="1" source="6vtT33JAd5Ye3ETnXhBx-5" target="6vtT33JAd5Ye3ETnXhBx-2" edge="1">
          <mxGeometry relative="1" as="geometry">
            <mxPoint x="640" y="410" as="sourcePoint" />
            <mxPoint x="740" y="410" as="targetPoint" />
          </mxGeometry>
        </mxCell>
        <mxCell id="6vtT33JAd5Ye3ETnXhBx-38" value="Проверка" style="edgeLabel;resizable=0;html=1;align=center;verticalAlign=middle;" parent="6vtT33JAd5Ye3ETnXhBx-37" connectable="0" vertex="1">
          <mxGeometry relative="1" as="geometry">
            <mxPoint y="30" as="offset" />
          </mxGeometry>
        </mxCell>
        <mxCell id="6vtT33JAd5Ye3ETnXhBx-39" value="Служба поддержки" style="rounded=0;whiteSpace=wrap;html=1;" parent="1" vertex="1">
          <mxGeometry x="180" y="600" width="120" height="60" as="geometry" />
        </mxCell>
        <mxCell id="6vtT33JAd5Ye3ETnXhBx-40" value="" style="endArrow=classic;html=1;rounded=0;exitX=0.014;exitY=1.043;exitDx=0;exitDy=0;exitPerimeter=0;entryX=0.1;entryY=-0.05;entryDx=0;entryDy=0;entryPerimeter=0;" parent="1" source="6vtT33JAd5Ye3ETnXhBx-6" target="6vtT33JAd5Ye3ETnXhBx-39" edge="1">
          <mxGeometry relative="1" as="geometry">
            <mxPoint x="340" y="585" as="sourcePoint" />
            <mxPoint x="440" y="585" as="targetPoint" />
          </mxGeometry>
        </mxCell>
        <mxCell id="6vtT33JAd5Ye3ETnXhBx-41" value="Содержание проблемы" style="edgeLabel;resizable=0;html=1;align=center;verticalAlign=middle;" parent="6vtT33JAd5Ye3ETnXhBx-40" connectable="0" vertex="1">
          <mxGeometry relative="1" as="geometry">
            <mxPoint x="-17" y="20" as="offset" />
          </mxGeometry>
        </mxCell>
        <mxCell id="6vtT33JAd5Ye3ETnXhBx-42" value="" style="endArrow=classic;html=1;rounded=0;entryX=0.257;entryY=1.043;entryDx=0;entryDy=0;entryPerimeter=0;exitX=1;exitY=0;exitDx=0;exitDy=0;" parent="1" source="6vtT33JAd5Ye3ETnXhBx-39" target="6vtT33JAd5Ye3ETnXhBx-6" edge="1">
          <mxGeometry relative="1" as="geometry">
            <mxPoint x="320" y="670" as="sourcePoint" />
            <mxPoint x="420" y="670" as="targetPoint" />
          </mxGeometry>
        </mxCell>
        <mxCell id="6vtT33JAd5Ye3ETnXhBx-43" value="Решение проблемы" style="edgeLabel;resizable=0;html=1;align=center;verticalAlign=middle;" parent="6vtT33JAd5Ye3ETnXhBx-42" connectable="0" vertex="1">
          <mxGeometry relative="1" as="geometry" />
        </mxCell>
      </root>
    </mxGraphModel>
  </diagram>
</mxfile>
